<svg version="1.1" xmlns="http://www.w3.org/2000/svg" xmlns:xlink="http://www.w3.org/1999/xlink" viewBox="0 0 171 171"><g fill="none" fill-rule="nonzero" stroke="none" stroke-width="1" stroke-linecap="butt" stroke-linejoin="miter" stroke-miterlimit="10" stroke-dasharray="" stroke-dashoffset="0" font-family="none" font-weight="none" font-size="none" text-anchor="none" style="mix-blend-mode: normal"><path d="M0,171.98863v-171.98863h171.98863v171.98863z" fill="none"></path><g fill="#316e96"><path d="M6.23438,49.875c-3.42334,0 -6.23437,2.81103 -6.23437,6.23438v87.28125c0,3.42334 2.81103,6.23438 6.23438,6.23438h15.14063c0,11.80078 9.57422,21.375 21.375,21.375c11.80078,0 21.375,-9.57422 21.375,-21.375h22.26563c3.42334,0 6.23438,-2.81103 6.23438,-6.23437v-87.28125c0,-3.42334 -2.81103,-6.23437 -6.23437,-6.23437zM104.42578,64.125c-2.56055,0 -4.67578,2.0874 -4.67578,4.67578v76.14844c0,1.92041 1.22461,3.53467 2.89453,4.23047c0.55664,0.22266 1.14111,0.44531 1.78125,0.44531h9.57422c0,11.80078 9.57422,21.375 21.375,21.375c11.80078,0 21.375,-9.57422 21.375,-21.375h9.57422c0.64014,0 1.22461,-0.19483 1.78125,-0.44531c1.11328,-0.47314 1.97608,-1.33594 2.44922,-2.44922c0.25049,-0.55664 0.44531,-1.14111 0.44531,-1.78125v-36.73828c0,-0.91846 -0.38964,-1.66992 -0.89062,-2.44922l-26.27344,-39.63281c-0.86279,-1.28027 -2.22656,-2.00391 -3.78516,-2.00391zM121.125,78.375h18.03516l18.92578,28.5h-36.96094zM42.75,138.9375c5.90039,0 10.6875,4.78711 10.6875,10.6875c0,5.90039 -4.78711,10.6875 -10.6875,10.6875c-5.90039,0 -10.6875,-4.78711 -10.6875,-10.6875c0,-5.90039 4.78711,-10.6875 10.6875,-10.6875zM135.375,138.9375c5.90039,0 10.6875,4.78711 10.6875,10.6875c0,5.90039 -4.78711,10.6875 -10.6875,10.6875c-5.90039,0 -10.6875,-4.78711 -10.6875,-10.6875c0,-5.90039 4.78711,-10.6875 10.6875,-10.6875z"></path></g></g></svg>